<svg width="17" height="19" viewBox="0 0 17 19" fill="none" xmlns="http://www.w3.org/2000/svg">
<path d="M1 15H0.5V15.5H1V15ZM16.3536 15.3536C16.5488 15.1583 16.5488 14.8417 16.3536 14.6464L13.1716 11.4645C12.9763 11.2692 12.6597 11.2692 12.4645 11.4645C12.2692 11.6597 12.2692 11.9763 12.4645 12.1716L15.2929 15L12.4645 17.8284C12.2692 18.0237 12.2692 18.3403 12.4645 18.5355C12.6597 18.7308 12.9763 18.7308 13.1716 18.5355L16.3536 15.3536ZM0.5 0V1.875H1.5V0H0.5ZM0.5 5.625V9.375H1.5V5.625H0.5ZM0.5 13.125V15H1.5V13.125H0.5ZM1 15.5H2.875V14.5H1V15.5ZM6.625 15.5H10.375V14.5H6.625V15.5ZM14.125 15.5H16V14.5H14.125V15.5Z" fill="white"/>
</svg>
