<svg width="38" height="34" viewBox="0 0 38 34" fill="none" xmlns="http://www.w3.org/2000/svg">
<path d="M18.2317 34H1.26605C0.620108 34 0.14363 33.3968 0.293243 32.7684L2.31705 24.2684C2.42431 23.8179 2.8268 23.5 3.28986 23.5H10.7101C11.1732 23.5 11.5757 23.1821 11.6829 22.7316L13.8171 13.7684C13.9243 13.3179 14.3268 13 14.7899 13H19.7045C20.1701 13 20.5742 12.6786 20.6789 12.2249L23.3211 0.77514C23.4258 0.321409 23.8299 0 24.2955 0H32.7028C33.3585 0 33.8367 0.620406 33.6699 1.25449L31.8301 8.24551C31.6633 8.87959 32.1415 9.5 32.7972 9.5H36.7676C37.4027 9.5 37.877 10.0845 37.7461 10.706L36.1672 18.206C36.0697 18.6688 35.6615 19 35.1886 19H23.7683C23.3152 19 22.9188 19.3046 22.802 19.7423L19.198 33.2577C19.0812 33.6954 18.6848 34 18.2317 34Z" fill="#1E1F23"/>
</svg>
