<?xml version="1.0" encoding="UTF-8" standalone="no"?><svg width="261" height="156" viewBox="0 0 261 156" fill="none" xmlns="http://www.w3.org/2000/svg">
<g clip-path="url(#clip0_366_204)">
<path fill-rule="evenodd" clip-rule="evenodd" d="M1.5 0.5H10H252H260.5V9V48H243.5V17.5H18.5V48H1.5V9V0.5ZM260.5 155.5H252H9H0.5V147V106H17.5V138.5H243.5V106H260.5V147V155.5ZM41.591 54.9V99H76.367V87.471H56.459V54.9H41.591ZM85.4582 94.527C89.2382 98.181 94.5092 100.008 101.271 100.008C108.033 100.008 113.304 98.181 117.084 94.527C120.864 90.873 122.754 85.749 122.754 79.155V54.9H108.138V78.714C108.138 82.074 107.529 84.468 106.311 85.896C105.135 87.282 103.497 87.975 101.397 87.975C99.3392 87.975 97.7012 87.282 96.4832 85.896C95.2652 84.468 94.6562 82.074 94.6562 78.714V54.9H79.7882V79.155C79.7882 85.749 81.6782 90.873 85.4582 94.527ZM129.57 54.9V99H144.06V78.9469L160.818 99H173.04V54.9H158.55V74.9531L141.792 54.9H129.57ZM194.693 54.9L175.415 99H190.535L193.489 91.314H210.261L213.215 99H228.587L209.309 54.9H194.693ZM206.145 80.604L201.875 69.4959L197.606 80.604H206.145Z" fill="white"/>
</g>
<defs>
<clipPath id="clip0_366_204">
<rect width="261" height="156" fill="white"/>
</clipPath>
</defs>
</svg>
